<svg xmlns="http://www.w3.org/2000/svg" viewBox="0 0 432 432" width="432" height="432"><circle cx="216.0" cy="216.0" r="134.78" fill="none" stroke="#28323F" stroke-width="2.2" stroke-opacity="0.55"/><circle cx="216.0" cy="216.0" r="73.92" fill="none" stroke="#E0791F" stroke-width="2.0" stroke-opacity="0.30"/><rect x="211.14" y="86.40" width="9.72" height="49.25" rx="4.86" fill="#E0791F" fill-opacity="0.853" transform="rotate(0.00 216.0 216.0)"/><rect x="211.14" y="86.40" width="9.72" height="49.25" rx="4.86" fill="#E0791F" fill-opacity="0.780" transform="rotate(15.00 216.0 216.0)"/><rect x="211.14" y="86.40" width="9.72" height="49.25" rx="4.86" fill="#E0791F" fill-opacity="0.707" transform="rotate(30.00 216.0 216.0)"/><rect x="211.14" y="86.40" width="9.72" height="49.25" rx="4.86" fill="#E0791F" fill-opacity="0.633" transform="rotate(45.00 216.0 216.0)"/><rect x="211.14" y="86.40" width="9.72" height="49.25" rx="4.86" fill="#E0791F" fill-opacity="0.560" transform="rotate(60.00 216.0 216.0)"/><rect x="211.14" y="86.40" width="9.72" height="49.25" rx="4.86" fill="#E0791F" fill-opacity="0.487" transform="rotate(75.00 216.0 216.0)"/><rect x="211.14" y="86.40" width="9.72" height="49.25" rx="4.86" fill="#E0791F" fill-opacity="0.413" transform="rotate(90.00 216.0 216.0)"/><rect x="211.14" y="86.40" width="9.72" height="49.25" rx="4.86" fill="#E0791F" fill-opacity="0.340" transform="rotate(105.00 216.0 216.0)"/><rect x="211.14" y="86.40" width="9.72" height="49.25" rx="4.86" fill="#E0791F" fill-opacity="0.267" transform="rotate(120.00 216.0 216.0)"/><rect x="211.14" y="86.40" width="9.72" height="49.25" rx="4.86" fill="#E0791F" fill-opacity="0.193" transform="rotate(135.00 216.0 216.0)"/><rect x="211.14" y="86.40" width="9.72" height="49.25" rx="4.86" fill="#E0791F" fill-opacity="0.120" transform="rotate(150.00 216.0 216.0)"/><rect x="211.14" y="86.40" width="9.72" height="49.25" rx="4.86" fill="#E0791F" fill-opacity="0.193" transform="rotate(165.00 216.0 216.0)"/><rect x="211.14" y="86.40" width="9.72" height="49.25" rx="4.86" fill="#E0791F" fill-opacity="0.267" transform="rotate(180.00 216.0 216.0)"/><rect x="211.14" y="86.40" width="9.72" height="49.25" rx="4.86" fill="#E0791F" fill-opacity="0.340" transform="rotate(195.00 216.0 216.0)"/><rect x="211.14" y="86.40" width="9.72" height="49.25" rx="4.86" fill="#E0791F" fill-opacity="0.413" transform="rotate(210.00 216.0 216.0)"/><rect x="211.14" y="86.40" width="9.72" height="49.25" rx="4.86" fill="#E0791F" fill-opacity="0.487" transform="rotate(225.00 216.0 216.0)"/><rect x="211.14" y="86.40" width="9.72" height="49.25" rx="4.86" fill="#E0791F" fill-opacity="0.560" transform="rotate(240.00 216.0 216.0)"/><rect x="211.14" y="86.40" width="9.72" height="49.25" rx="4.86" fill="#E0791F" fill-opacity="0.633" transform="rotate(255.00 216.0 216.0)"/><rect x="211.14" y="86.40" width="9.72" height="49.25" rx="4.86" fill="#E0791F" fill-opacity="0.707" transform="rotate(270.00 216.0 216.0)"/><rect x="211.14" y="86.40" width="9.72" height="49.25" rx="4.86" fill="#E0791F" fill-opacity="0.780" transform="rotate(285.00 216.0 216.0)"/><rect x="211.14" y="86.40" width="9.72" height="49.25" rx="4.86" fill="#E0791F" fill-opacity="0.853" transform="rotate(300.00 216.0 216.0)"/><rect x="211.14" y="86.40" width="9.72" height="49.25" rx="4.86" fill="#E0791F" fill-opacity="0.927" transform="rotate(315.00 216.0 216.0)"/><rect x="211.14" y="86.40" width="9.72" height="49.25" rx="4.86" fill="#E0791F" fill-opacity="1.000" transform="rotate(330.00 216.0 216.0)"/><rect x="211.14" y="86.40" width="9.72" height="49.25" rx="4.86" fill="#E0791F" fill-opacity="0.927" transform="rotate(345.00 216.0 216.0)"/><circle cx="216.0" cy="216.0" r="27.12" fill="#E0791F" fill-opacity="0.16"/><circle cx="216.0" cy="216.0" r="17.50" fill="#FFD13D"/></svg>