<svg xmlns="http://www.w3.org/2000/svg" viewBox="0 0 432 432" width="432" height="432"><rect x="0" y="0" width="432" height="432" fill="#07090C"/><radialGradient id="vig" cx="50%" cy="44%" r="62%"><stop offset="0%" stop-color="#0C111A"/><stop offset="100%" stop-color="#07090C"/></radialGradient><rect x="0" y="0" width="432" height="432" fill="url(#vig)"/><circle cx="216.0" cy="216.0" r="129.6" fill="none" stroke="#1A2129" stroke-width="1.6" stroke-opacity="0.6"/><circle cx="216.0" cy="216.0" r="198.7" fill="none" stroke="#1A2129" stroke-width="1.6" stroke-opacity="0.6"/><circle cx="216.0" cy="216.0" r="267.8" fill="none" stroke="#1A2129" stroke-width="1.6" stroke-opacity="0.6"/><path d="M216.0,36 L216.0,396 M36,216.0 L396,216.0" stroke="#1A2129" stroke-width="1.4" stroke-opacity="0.5"/><circle cx="216.0" cy="216.0" r="179.71" fill="none" stroke="#28323F" stroke-width="2.2" stroke-opacity="0.55"/><circle cx="216.0" cy="216.0" r="98.57" fill="none" stroke="#E0791F" stroke-width="2.0" stroke-opacity="0.30"/><rect x="209.52" y="43.20" width="12.96" height="65.66" rx="6.48" fill="#E0791F" fill-opacity="0.853" transform="rotate(0.00 216.0 216.0)"/><rect x="209.52" y="43.20" width="12.96" height="65.66" rx="6.48" fill="#E0791F" fill-opacity="0.780" transform="rotate(15.00 216.0 216.0)"/><rect x="209.52" y="43.20" width="12.96" height="65.66" rx="6.48" fill="#E0791F" fill-opacity="0.707" transform="rotate(30.00 216.0 216.0)"/><rect x="209.52" y="43.20" width="12.96" height="65.66" rx="6.48" fill="#E0791F" fill-opacity="0.633" transform="rotate(45.00 216.0 216.0)"/><rect x="209.52" y="43.20" width="12.96" height="65.66" rx="6.48" fill="#E0791F" fill-opacity="0.560" transform="rotate(60.00 216.0 216.0)"/><rect x="209.52" y="43.20" width="12.96" height="65.66" rx="6.48" fill="#E0791F" fill-opacity="0.487" transform="rotate(75.00 216.0 216.0)"/><rect x="209.52" y="43.20" width="12.96" height="65.66" rx="6.48" fill="#E0791F" fill-opacity="0.413" transform="rotate(90.00 216.0 216.0)"/><rect x="209.52" y="43.20" width="12.96" height="65.66" rx="6.48" fill="#E0791F" fill-opacity="0.340" transform="rotate(105.00 216.0 216.0)"/><rect x="209.52" y="43.20" width="12.96" height="65.66" rx="6.48" fill="#E0791F" fill-opacity="0.267" transform="rotate(120.00 216.0 216.0)"/><rect x="209.52" y="43.20" width="12.96" height="65.66" rx="6.48" fill="#E0791F" fill-opacity="0.193" transform="rotate(135.00 216.0 216.0)"/><rect x="209.52" y="43.20" width="12.96" height="65.66" rx="6.48" fill="#E0791F" fill-opacity="0.120" transform="rotate(150.00 216.0 216.0)"/><rect x="209.52" y="43.20" width="12.96" height="65.66" rx="6.48" fill="#E0791F" fill-opacity="0.193" transform="rotate(165.00 216.0 216.0)"/><rect x="209.52" y="43.20" width="12.96" height="65.66" rx="6.48" fill="#E0791F" fill-opacity="0.267" transform="rotate(180.00 216.0 216.0)"/><rect x="209.52" y="43.20" width="12.96" height="65.66" rx="6.48" fill="#E0791F" fill-opacity="0.340" transform="rotate(195.00 216.0 216.0)"/><rect x="209.52" y="43.20" width="12.96" height="65.66" rx="6.48" fill="#E0791F" fill-opacity="0.413" transform="rotate(210.00 216.0 216.0)"/><rect x="209.52" y="43.20" width="12.96" height="65.66" rx="6.48" fill="#E0791F" fill-opacity="0.487" transform="rotate(225.00 216.0 216.0)"/><rect x="209.52" y="43.20" width="12.96" height="65.66" rx="6.48" fill="#E0791F" fill-opacity="0.560" transform="rotate(240.00 216.0 216.0)"/><rect x="209.52" y="43.20" width="12.96" height="65.66" rx="6.48" fill="#E0791F" fill-opacity="0.633" transform="rotate(255.00 216.0 216.0)"/><rect x="209.52" y="43.20" width="12.96" height="65.66" rx="6.48" fill="#E0791F" fill-opacity="0.707" transform="rotate(270.00 216.0 216.0)"/><rect x="209.52" y="43.20" width="12.96" height="65.66" rx="6.48" fill="#E0791F" fill-opacity="0.780" transform="rotate(285.00 216.0 216.0)"/><rect x="209.52" y="43.20" width="12.96" height="65.66" rx="6.48" fill="#E0791F" fill-opacity="0.853" transform="rotate(300.00 216.0 216.0)"/><rect x="209.52" y="43.20" width="12.96" height="65.66" rx="6.48" fill="#E0791F" fill-opacity="0.927" transform="rotate(315.00 216.0 216.0)"/><rect x="209.52" y="43.20" width="12.96" height="65.66" rx="6.48" fill="#E0791F" fill-opacity="1.000" transform="rotate(330.00 216.0 216.0)"/><rect x="209.52" y="43.20" width="12.96" height="65.66" rx="6.48" fill="#E0791F" fill-opacity="0.927" transform="rotate(345.00 216.0 216.0)"/><circle cx="216.0" cy="216.0" r="36.16" fill="#E0791F" fill-opacity="0.16"/><circle cx="216.0" cy="216.0" r="23.33" fill="#FFD13D"/></svg>